o Button
v 0.76125 0.099999999999999992 -0.795
v -0.35250000000000015 0.099999999999999992 -0.795
v -0.34690811690796319 0.15000000000000002 -0.78150000000000008
v 0.75565811690796325 0.15000000000000002 -0.78150000000000008
v -0.38625000000000009 0.099999999999999992 -0.76125
v -0.37275 0.15000000000000002 -0.75565811690796325
v -0.38625000000000009 0.099999999999999992 -0.55875000000000008
v -0.37275 0.15000000000000002 -0.56434188309203681
v -0.34690811690796319 0.15000000000000002 -0.5385
v -0.35250000000000015 0.099999999999999992 -0.525
v 0.75565811690796325 0.15000000000000002 -0.5385
v 0.76125 0.099999999999999992 -0.525
v 0.795 0.099999999999999992 -0.55875000000000008
v 0.78150000000000008 0.15000000000000002 -0.56434188309203681
v 0.795 0.099999999999999992 -0.76125
v 0.78150000000000008 0.15000000000000002 -0.75565811690796325
vn 0 1 -1
vn 0 1 0
vn -1 1 0
vn 0 1 1
vn 1 1 0
vt 0.82476405494325 0.913054455623
vt 0.29336221101149995 0.913054455623
vt 0.29603025768818614 0.9066132211511
vt 0.822096008266564 0.9066132211511
vt 0.27725912483174997 0.89695136944324994
vt 0.28370035930365 0.89428332276656386
vt 0.27725912483174997 0.80033285236474994
vt 0.28370035930365 0.80300089904143612
vt 0.29603025768818614 0.7906710006569
vt 0.29336221101149995 0.784229766185
vt 0.822096008266564 0.7906710006569
vt 0.82476405494325 0.784229766185
vt 0.840867141123 0.80033285236474994
vt 0.83442590665110006 0.80300089904143612
vt 0.840867141123 0.89695136944324994
vt 0.83442590665110006 0.89428332276656386
g Button
f 1/1/1 2/2/1 3/3/2 4/4/2
f 2/2/1 5/5/3 6/6/2 3/3/2
f 5/5/3 7/7/3 8/8/2 6/6/2
f 9/9/2 8/8/2 7/7/3 10/10/4
f 11/11/2 9/9/2 10/10/4 12/12/4
f 11/11/2 12/12/4 13/13/5 14/14/2
f 14/14/2 13/13/5 15/15/5 16/16/2
f 16/16/2 15/15/5 1/1/1 4/4/2
f 4/4/2 3/3/2 6/6/2 8/8/2 9/9/2 11/11/2 14/14/2 16/16/2
